HIERARCHY
ROOT Hips
{
	OFFSET 0.000000 100.481300 0.000000
	CHANNELS 6 Xposition Yposition Zposition Xrotation Yrotation Zrotation 
	JOINT Spine
	{
		OFFSET -0.279200 12.230698 -2.892100
		CHANNELS 3 Xrotation Yrotation Zrotation
		JOINT Spine1
		{
			OFFSET -0.232667 10.192268 -1.242267
			CHANNELS 3 Xrotation Yrotation Zrotation
			JOINT Spine1_split
			{
				OFFSET -0.232667 10.192268 -1.242267
				CHANNELS 3 Xrotation Yrotation Zrotation
				JOINT Spine2
				{
					OFFSET -0.232667 10.192268 -1.242267
					CHANNELS 3 Xrotation Yrotation Zrotation
					JOINT Neck
					{
						OFFSET -0.418800 17.814194 8.416900
						CHANNELS 3 Xrotation Yrotation Zrotation
						JOINT Head
						{
							OFFSET 0.000000 7.031097 3.806800
							CHANNELS 3 Xrotation Yrotation Zrotation
							JOINT HeadTop_End
							{
								OFFSET 0.000000 24.646606 12.978600
								CHANNELS 3 Xrotation Yrotation Zrotation
								End Site
								{
									OFFSET 0.000000 0.000000 0.000000
								}
							}
						}
					}
					JOINT LeftShoulder
					{
						OFFSET 8.476499 7.247704 -3.868750
						CHANNELS 3 Xrotation Yrotation Zrotation
						JOINT LeftShoulder_split
						{
							OFFSET 8.476499 7.247704 -3.868750
							CHANNELS 3 Xrotation Yrotation Zrotation
							JOINT LeftArm
							{
								OFFSET 9.308998 -2.777710 0.208600
								CHANNELS 3 Xrotation Yrotation Zrotation
								JOINT LeftForeArm
								{
									OFFSET 29.972298 0.000000 0.000000
									CHANNELS 3 Xrotation Yrotation Zrotation
									JOINT LeftHand
									{
										OFFSET 26.026505 0.000000 0.000000
										CHANNELS 3 Xrotation Yrotation Zrotation
										JOINT LeftHandThumb1
										{
											OFFSET 12.240501 -7.147949 9.207150
											CHANNELS 3 Xrotation Yrotation Zrotation
											JOINT LeftHandThumb2
											{
												OFFSET 4.138618 -2.389435 2.389433
												CHANNELS 3 Xrotation Yrotation Zrotation
												JOINT LeftHandThumb3
												{
													OFFSET 2.726913 -1.574387 1.574386
													CHANNELS 3 Xrotation Yrotation Zrotation
													JOINT LeftHandThumb4
													{
														OFFSET 3.941010 -2.275345 2.275342
														CHANNELS 3 Xrotation Yrotation Zrotation
														End Site
														{
															OFFSET 0.000000 0.000000 0.000000
														}
													}
												}
											}
										}
										JOINT LeftHandIndex1
										{
											OFFSET 24.424698 -1.985611 5.953459
											CHANNELS 3 Xrotation Yrotation Zrotation
											JOINT LeftHandIndex2
											{
												OFFSET 6.426697 0.000000 0.000000
												CHANNELS 3 Xrotation Yrotation Zrotation
												JOINT LeftHandIndex3
												{
													OFFSET 5.337898 0.000000 0.000000
													CHANNELS 3 Xrotation Yrotation Zrotation
													JOINT LeftHandIndex4
													{
														OFFSET 4.409401 0.000000 0.000000
														CHANNELS 3 Xrotation Yrotation Zrotation
														End Site
														{
															OFFSET 0.000000 0.000000 0.000000
														}
													}
												}
											}
										}
										JOINT LeftHandMiddle1
										{
											OFFSET 23.810104 0.000000 0.000000
											CHANNELS 3 Xrotation Yrotation Zrotation
											JOINT LeftHandMiddle2
											{
												OFFSET 7.176498 0.000000 0.000000
												CHANNELS 3 Xrotation Yrotation Zrotation
												JOINT LeftHandMiddle3
												{
													OFFSET 6.774902 0.000000 0.000000
													CHANNELS 3 Xrotation Yrotation Zrotation
													JOINT LeftHandMiddle4
													{
														OFFSET 5.403328 0.000000 0.000000
														CHANNELS 3 Xrotation Yrotation Zrotation
														End Site
														{
															OFFSET 0.000000 0.000000 0.000000
														}
													}
												}
											}
										}
										JOINT LeftHandRing1
										{
											OFFSET 22.908401 -0.839279 -6.020567
											CHANNELS 3 Xrotation Yrotation Zrotation
											JOINT LeftHandRing2
											{
												OFFSET 6.337502 0.000000 0.000000
												CHANNELS 3 Xrotation Yrotation Zrotation
												JOINT LeftHandRing3
												{
													OFFSET 5.779297 0.000000 0.000000
													CHANNELS 3 Xrotation Yrotation Zrotation
													JOINT LeftHandRing4
													{
														OFFSET 4.965698 0.000000 0.000000
														CHANNELS 3 Xrotation Yrotation Zrotation
														End Site
														{
															OFFSET 0.000000 0.000000 0.000000
														}
													}
												}
											}
										}
										JOINT LeftHandPinky1
										{
											OFFSET 20.037003 -1.530319 -10.950146
											CHANNELS 3 Xrotation Yrotation Zrotation
											JOINT LeftHandPinky2
											{
												OFFSET 5.254700 0.000000 0.000000
												CHANNELS 3 Xrotation Yrotation Zrotation
												JOINT LeftHandPinky3
												{
													OFFSET 4.810204 0.000000 0.000000
													CHANNELS 3 Xrotation Yrotation Zrotation
													JOINT LeftHandPinky4
													{
														OFFSET 3.647202 0.000000 0.000000
														CHANNELS 3 Xrotation Yrotation Zrotation
														End Site
														{
															OFFSET 0.000000 0.000000 0.000000
														}
													}
												}
											}
										}
									}
								}
							}
						}
					}
					JOINT RightShoulder
					{
						OFFSET -7.570500 7.247704 -3.868750
						CHANNELS 3 Xrotation Yrotation Zrotation
						JOINT RightShoulder_split
						{
							OFFSET -7.570500 7.247704 -3.868750
							CHANNELS 3 Xrotation Yrotation Zrotation
							JOINT RightArm
							{
								OFFSET -9.308998 -2.777710 0.208500
								CHANNELS 3 Xrotation Yrotation Zrotation
								JOINT RightForeArm
								{
									OFFSET -29.972300 0.000000 0.000000
									CHANNELS 3 Xrotation Yrotation Zrotation
									JOINT RightHand
									{
										OFFSET -26.026505 0.000000 0.000000
										CHANNELS 3 Xrotation Yrotation Zrotation
										JOINT RightHandThumb1
										{
											OFFSET -12.240601 -7.148026 9.207092
											CHANNELS 3 Xrotation Yrotation Zrotation
											JOINT RightHandThumb2
											{
												OFFSET -4.138618 -2.389435 2.389433
												CHANNELS 3 Xrotation Yrotation Zrotation
												JOINT RightHandThumb3
												{
													OFFSET -2.726974 -1.574417 1.574421
													CHANNELS 3 Xrotation Yrotation Zrotation
													JOINT RightHandThumb4
													{
														OFFSET -3.941010 -2.275345 2.275343
														CHANNELS 3 Xrotation Yrotation Zrotation
														End Site
														{
															OFFSET 0.000000 0.000000 0.000000
														}
													}
												}
											}
										}
										JOINT RightHandIndex1
										{
											OFFSET -24.424698 -1.985657 5.953444
											CHANNELS 3 Xrotation Yrotation Zrotation
											JOINT RightHandIndex2
											{
												OFFSET -6.426697 0.000000 0.000000
												CHANNELS 3 Xrotation Yrotation Zrotation
												JOINT RightHandIndex3
												{
													OFFSET -5.337898 0.000000 0.000000
													CHANNELS 3 Xrotation Yrotation Zrotation
													JOINT RightHandIndex4
													{
														OFFSET -4.409401 0.000000 0.000000
														CHANNELS 3 Xrotation Yrotation Zrotation
														End Site
														{
															OFFSET 0.000000 0.000000 0.000000
														}
													}
												}
											}
										}
										JOINT RightHandMiddle1
										{
											OFFSET -23.810097 0.000000 0.000000
											CHANNELS 3 Xrotation Yrotation Zrotation
											JOINT RightHandMiddle2
											{
												OFFSET -7.176498 0.000000 0.000000
												CHANNELS 3 Xrotation Yrotation Zrotation
												JOINT RightHandMiddle3
												{
													OFFSET -6.774902 0.000000 0.000000
													CHANNELS 3 Xrotation Yrotation Zrotation
													JOINT RightHandMiddle4
													{
														OFFSET -5.403328 0.000000 0.000000
														CHANNELS 3 Xrotation Yrotation Zrotation
														End Site
														{
															OFFSET 0.000000 0.000000 0.000000
														}
													}
												}
											}
										}
										JOINT RightHandRing1
										{
											OFFSET -22.908302 -0.839325 -6.020576
											CHANNELS 3 Xrotation Yrotation Zrotation
											JOINT RightHandRing2
											{
												OFFSET -6.337502 0.000000 0.000000
												CHANNELS 3 Xrotation Yrotation Zrotation
												JOINT RightHandRing3
												{
													OFFSET -5.779297 0.000000 0.000000
													CHANNELS 3 Xrotation Yrotation Zrotation
													JOINT RightHandRing4
													{
														OFFSET -4.965698 0.000000 0.000000
														CHANNELS 3 Xrotation Yrotation Zrotation
														End Site
														{
															OFFSET 0.000000 0.000000 0.000000
														}
													}
												}
											}
										}
										JOINT RightHandPinky1
										{
											OFFSET -20.037003 -1.530334 -10.950259
											CHANNELS 3 Xrotation Yrotation Zrotation
											JOINT RightHandPinky2
											{
												OFFSET -5.254700 0.000000 0.000000
												CHANNELS 3 Xrotation Yrotation Zrotation
												JOINT RightHandPinky3
												{
													OFFSET -4.810204 0.000000 0.000000
													CHANNELS 3 Xrotation Yrotation Zrotation
													JOINT RightHandPinky4
													{
														OFFSET -3.647202 0.000000 0.000000
														CHANNELS 3 Xrotation Yrotation Zrotation
														End Site
														{
															OFFSET 0.000000 0.000000 0.000000
														}
													}
												}
											}
										}
									}
								}
							}
						}
					}
				}
			}
		}
	}
	JOINT LeftUpLeg
	{
		OFFSET 15.427100 -6.655098 0.678600
		CHANNELS 3 Xrotation Yrotation Zrotation
		JOINT LeftLeg
		{
			OFFSET 4.081073 -39.591068 13.024000
			CHANNELS 3 Xrotation Yrotation Zrotation
			JOINT LeftFoot
			{
				OFFSET -4.081074 -37.707932 -15.979700
				CHANNELS 3 Xrotation Yrotation Zrotation
				JOINT LeftToeBase
				{
					OFFSET 5.346399 -15.068900 20.645000
					CHANNELS 3 Xrotation Yrotation Zrotation
					JOINT LeftToe_End
					{
						OFFSET 2.754700 0.931300 11.300900
						CHANNELS 3 Xrotation Yrotation Zrotation
						End Site
						{
							OFFSET 0.000000 0.000000 0.000000
						}
					}
				}
			}
		}
	}
	JOINT RightUpLeg
	{
		OFFSET -15.569500 -6.655098 0.678600
		CHANNELS 3 Xrotation Yrotation Zrotation
		JOINT RightLeg
		{
			OFFSET -4.081825 -39.591045 13.023800
			CHANNELS 3 Xrotation Yrotation Zrotation
			JOINT RightFoot
			{
				OFFSET 4.081824 -37.707954 -15.979600
				CHANNELS 3 Xrotation Yrotation Zrotation
				JOINT RightToeBase
				{
					OFFSET -5.346400 -15.068900 20.645000
					CHANNELS 3 Xrotation Yrotation Zrotation
					JOINT RightToe_End
					{
						OFFSET -2.754700 0.931300 11.300900
						CHANNELS 3 Xrotation Yrotation Zrotation
						End Site
						{
							OFFSET 0.000000 0.000000 0.000000
						}
					}
				}
			}
		}
	}
}
MOTION
Frames: 4
Frame Time: 0.016667
0.851282 69.056229 -92.801941 36.712615 -69.677246 29.842486 0.905624 10.509590 -4.247019 -1.602551 6.808460 -2.710773 0.000000 0.000000 0.000000 -1.615875 2.233989 1.483569 13.856778 5.273889 -5.005345 3.706267 16.403025 6.692206 -0.000001 -0.000002 -0.000000 4.053405 5.979539 -12.991226 0.000000 0.000000 0.000000 -54.011620 -35.171670 -50.958580 -0.000327 -82.344767 -0.000336 -61.076856 33.044383 41.897753 -14.557449 10.837980 12.229972 0.749526 -4.257955 13.305475 -10.783713 -23.179372 -4.132411 0.000003 0.000000 0.000000 -0.809530 2.578163 -31.496437 3.095895 5.163778 -61.866959 0.503788 2.378644 -23.913138 0.000000 0.000000 -0.000001 -2.430840 1.729225 -41.460932 2.952354 5.084726 -60.259931 1.321770 3.707983 -39.227846 0.000000 -0.000001 0.000000 -6.054114 -0.166598 -49.857574 3.046230 5.137034 -61.313952 0.351700 2.001105 -19.935126 0.000000 -0.000000 0.000000 -8.298294 -6.522673 -38.520150 2.848769 5.024397 -59.084408 0.876781 3.084711 -31.727506 -0.000001 -0.000000 -0.000001 -14.532549 3.553458 -4.417809 0.000000 0.000000 0.000000 79.542232 138.739078 -57.059769 0.000016 34.452929 -0.000013 -53.561397 -12.490260 -34.496652 8.377145 -4.904136 11.021982 21.620202 -18.183878 -18.379204 -0.702904 -49.821217 -32.535166 -0.000002 0.000002 0.000001 0.558938 -4.406588 25.436649 1.653030 -3.560339 49.799083 1.737711 -3.630062 51.149217 0.000000 0.000000 -0.000000 10.969819 -12.875580 52.800835 6.387592 -4.324423 111.833665 0.247367 -1.499124 18.739129 -0.000002 -0.000001 0.000001 3.705088 -7.151327 57.622440 5.328201 -4.608678 98.293430 1.627336 -3.538507 49.383989 0.000000 0.000000 -0.000001 0.474826 -5.172983 58.987672 3.194323 -4.421935 71.674147 1.771408 -3.656887 51.679561 0.000000 0.000001 -0.000003 -61.005836 -23.259186 28.682082 39.720883 -5.478733 8.753971 21.152256 2.221529 -14.267458 -2.199493 0.002533 -0.556279 0.000001 0.000001 -0.000002 -17.521783 6.240398 -30.573839 45.931349 0.101772 1.348130 -11.731739 -33.544722 37.484990 -1.798245 0.000021 0.000000 -0.000000 -0.000001 -0.000001 
1.355837 69.824722 -96.597786 35.394443 -68.737070 28.254724 0.861815 9.375486 -3.576324 -1.626989 6.164446 -2.467201 0.000000 0.000000 0.000000 -1.632770 1.585612 1.723307 13.644001 5.603240 -5.278001 3.496012 17.228928 6.531498 0.000003 -0.000001 0.000001 3.999907 6.042612 -12.807237 0.000000 0.000000 0.000000 -53.296041 -34.622984 -51.004424 -0.000168 -82.387784 -0.000183 -60.568246 31.239141 41.384178 -14.557449 10.837979 12.229967 0.749527 -4.257953 13.305473 -10.783706 -23.179374 -4.132410 0.000001 -0.000001 0.000001 -0.809530 2.578163 -31.496441 3.095894 5.163778 -61.866959 0.503787 2.378642 -23.913136 -0.000000 0.000001 0.000000 -2.430839 1.729225 -41.460928 2.952358 5.084726 -60.259925 1.321771 3.707982 -39.227843 -0.000000 -0.000000 0.000000 -6.054115 -0.166598 -49.857584 3.046229 5.137034 -61.313946 0.351700 2.001102 -19.935128 0.000001 0.000001 0.000001 -8.298296 -6.522674 -38.520150 2.848768 5.024397 -59.084401 0.876781 3.084709 -31.727499 -0.000000 0.000001 -0.000000 -14.624214 3.283238 -4.768790 0.000000 0.000000 0.000000 77.652660 137.993495 -55.679907 0.000022 33.172200 -0.000019 -53.616268 -11.197036 -33.722686 8.377144 -4.904133 11.021996 21.620199 -18.183878 -18.379204 -0.702908 -49.821213 -32.535162 -0.000001 0.000001 0.000001 0.558938 -4.406588 25.436652 1.653031 -3.560341 49.799090 1.737711 -3.630062 51.149214 -0.000002 -0.000000 0.000000 10.969820 -12.875578 52.800835 6.387592 -4.324423 111.833658 0.247365 -1.499121 18.739123 -0.000000 -0.000000 -0.000001 3.705088 -7.151325 57.622440 5.328202 -4.608678 98.293430 1.627336 -3.538507 49.383992 0.000000 -0.000000 -0.000001 0.474826 -5.172983 58.987679 3.194324 -4.421935 71.674147 1.771409 -3.656888 51.679564 -0.000000 0.000001 -0.000001 -62.755512 -22.059184 27.133270 37.634308 -4.828430 8.779315 23.791096 1.560294 -12.487012 -0.668823 0.016737 -1.431377 0.000000 -0.000002 -0.000001 -19.533508 4.756038 -29.669990 47.854751 -1.679972 3.758930 -13.907852 -30.806670 36.615930 -1.541030 -0.000006 -0.000002 0.000000 0.000001 0.000000 
1.858845 70.609100 -100.126266 34.169715 -67.697181 26.569077 0.846724 8.347250 -2.717657 -1.619446 5.518444 -2.231737 0.000000 0.000000 0.000000 -1.616524 0.925570 1.956718 13.288390 5.956499 -5.383661 2.808269 18.062145 6.550450 0.000003 -0.000002 -0.000000 3.900272 5.904401 -12.522479 0.000000 0.000000 0.000000 -52.948675 -33.982797 -50.979846 0.000268 -82.394081 0.000249 -59.827451 29.409131 40.747006 -14.557452 10.837982 12.229963 0.749526 -4.257955 13.305478 -10.783708 -23.179372 -4.132411 0.000001 0.000000 0.000001 -0.809533 2.578163 -31.496434 3.095891 5.163777 -61.866959 0.503788 2.378645 -23.913138 -0.000000 -0.000001 -0.000001 -2.430841 1.729226 -41.460932 2.952355 5.084727 -60.259925 1.321770 3.707982 -39.227846 -0.000000 0.000001 -0.000000 -6.054116 -0.166598 -49.857577 3.046228 5.137034 -61.313952 0.351701 2.001104 -19.935125 0.000001 -0.000001 0.000001 -8.298295 -6.522674 -38.520153 2.848765 5.024395 -59.084408 0.876781 3.084710 -31.727499 -0.000001 -0.000000 -0.000001 -14.701916 3.010199 -5.023189 0.000000 0.000000 0.000000 75.541127 137.547716 -54.314641 0.000021 31.733161 -0.000014 -53.364989 -9.666786 -32.827617 8.377144 -4.904134 11.021986 21.620201 -18.183876 -18.379202 -0.702904 -49.821217 -32.535159 -0.000001 0.000000 0.000002 0.558939 -4.406588 25.436656 1.653031 -3.560339 49.799087 1.737711 -3.630062 51.149214 0.000001 -0.000000 0.000000 10.969821 -12.875577 52.800846 6.387590 -4.324422 111.833658 0.247367 -1.499123 18.739126 -0.000001 -0.000001 0.000002 3.705087 -7.151323 57.622440 5.328202 -4.608677 98.293430 1.627335 -3.538508 49.383989 0.000001 0.000000 -0.000002 0.474826 -5.172983 58.987679 3.194324 -4.421935 71.674147 1.771409 -3.656886 51.679561 0.000001 -0.000000 0.000002 -65.072264 -20.367293 25.060430 36.607314 -4.421742 8.872127 25.223813 0.620016 -12.006363 -0.579749 0.012669 -1.251410 -0.000001 0.000002 -0.000003 -21.073468 2.683322 -29.193287 49.100939 -3.725243 6.560253 -15.741347 -27.171497 35.870432 -1.156854 0.000019 0.000009 0.000000 -0.000003 -0.000000 
2.237104 71.314415 -103.299744 33.379650 -66.810308 25.309199 0.865017 7.551687 -1.949754 -1.604752 4.974518 -2.071099 0.000000 0.000000 0.000000 -1.594769 0.362926 2.116388 12.920236 6.278301 -5.327310 1.884700 18.797657 6.755084 -0.000001 0.000002 -0.000001 3.777936 5.614933 -12.196082 0.000000 0.000000 0.000000 -52.876493 -33.357155 -50.874514 0.000358 -82.402886 0.000353 -59.121195 27.942188 40.166683 -14.557447 10.837979 12.229962 0.749523 -4.257956 13.305473 -10.783708 -23.179372 -4.132409 -0.000002 -0.000000 -0.000000 -0.809530 2.578161 -31.496434 3.095892 5.163778 -61.866966 0.503787 2.378642 -23.913136 -0.000000 0.000001 -0.000001 -2.430839 1.729224 -41.460928 2.952355 5.084727 -60.259931 1.321770 3.707981 -39.227839 0.000000 0.000001 -0.000000 -6.054114 -0.166600 -49.857574 3.046230 5.137032 -61.313952 0.351700 2.001100 -19.935125 -0.000000 0.000000 -0.000000 -8.298294 -6.522675 -38.520150 2.848765 5.024396 -59.084401 0.876779 3.084710 -31.727506 -0.000001 -0.000000 -0.000000 -14.751598 2.757350 -5.115944 0.000000 0.000000 0.000000 73.753933 137.448118 -53.227620 -0.000007 30.448854 0.000004 -52.877894 -8.315544 -32.047760 8.377144 -4.904134 11.021987 21.620202 -18.183874 -18.379202 -0.702906 -49.821217 -32.535166 -0.000003 0.000000 -0.000002 0.558939 -4.406589 25.436654 1.653031 -3.560339 49.799087 1.737713 -3.630061 51.149210 -0.000001 -0.000000 0.000000 10.969819 -12.875577 52.800842 6.387589 -4.324425 111.833658 0.247364 -1.499122 18.739129 0.000001 0.000000 0.000000 3.705089 -7.151324 57.622440 5.328202 -4.608676 98.293430 1.627336 -3.538506 49.383992 -0.000000 0.000000 -0.000000 0.474826 -5.172983 58.987679 3.194324 -4.421935 71.674147 1.771410 -3.656886 51.679561 -0.000000 -0.000000 0.000001 -67.766910 -18.400555 22.456603 37.446362 -4.232138 9.014932 25.348193 -0.320972 -12.595079 -0.616511 0.014458 -1.342719 -0.000000 -0.000000 0.000001 -23.493318 0.099943 -27.287939 50.839092 -3.991236 6.910077 -17.672073 -25.810049 32.902886 -1.155745 0.000018 -0.000006 -0.000000 -0.000001 0.000000 
